<svg width="151" height="51" fill="none" xmlns="http://www.w3.org/2000/svg">
    <path
        d="M6.056 1.164h138.888c2.739 0 5.056 2.517 5.056 5.75v37.5c0 3.233-2.317 5.75-5.056 5.75H6.056C3.317 50.164 1 47.647 1 44.414v-37.5c0-3.233 2.317-5.75 5.056-5.75z"
        fill="#000" stroke="#A6A6A6"></path>
    <path
        d="M53.189 14.382a2.966 2.966 0 0 1-.834 2.2 3.25 3.25 0 0 1-2.444.968 3.362 3.362 0 0 1-2.456-.99 3.49 3.49 0 0 1-1.01-2.453 3.49 3.49 0 0 1 1.01-2.453 3.544 3.544 0 0 1 3.822-.715c.401.163.758.415 1.045.737l-.589.583a2.22 2.22 0 0 0-1.822-.792 2.68 2.68 0 0 0-1.886.773 2.627 2.627 0 0 0-.78 1.867c0 .7.28 1.372.78 1.867a2.68 2.68 0 0 0 1.886.773 2.556 2.556 0 0 0 1.855-.737c.347-.365.549-.842.567-1.342h-2.422v-.792h3.233c.025.168.04.337.045.506zM58.277 11.632h-3v2.09h2.733v.792h-2.733v2.09h3v.814H54.41v-6.6h3.867v.814zM61.921 17.418h-.855v-5.786h-1.867v-.814h4.634v.814H61.92v5.786zM67.102 17.418v-6.6h.855v6.6h-.855zM71.754 17.418h-.856v-5.786H69.03v-.814h4.578v.814h-1.855v5.786zM82.289 16.56a3.486 3.486 0 0 1-4.889 0 3.545 3.545 0 0 1-.978-2.442c0-.908.35-1.781.978-2.442a3.284 3.284 0 0 1 2.445-1.001 3.362 3.362 0 0 1 2.444 1 3.373 3.373 0 0 1 .977 2.443 3.27 3.27 0 0 1-.977 2.442zm-4.256-.55a2.546 2.546 0 0 0 1.811.75 2.566 2.566 0 0 0 1.811-.75c.48-.516.746-1.191.746-1.892 0-.701-.266-1.376-.746-1.892a2.547 2.547 0 0 0-1.81-.75 2.566 2.566 0 0 0-1.812.75 2.778 2.778 0 0 0-.746 1.892c0 .7.267 1.376.746 1.892zM84.477 17.418v-6.6h1.033l3.244 5.137V10.82h.856v6.6h-.889l-3.389-5.38v5.379h-.855z"
        fill="#fff" stroke="#fff" stroke-width="0.218" stroke-miterlimit="10"></path>
    <path
        d="M76.21 27.043c-.935.002-1.85.279-2.627.796a4.697 4.697 0 0 0-1.738 2.107 4.643 4.643 0 0 0-.263 2.708 4.672 4.672 0 0 0 1.3 2.396 4.748 4.748 0 0 0 2.427 1.277c.919.178 1.87.083 2.734-.273a4.723 4.723 0 0 0 2.12-1.731 4.652 4.652 0 0 0 .792-2.605 4.568 4.568 0 0 0-.343-1.805 4.606 4.606 0 0 0-1.028-1.529 4.66 4.66 0 0 0-1.549-1.01c-.58-.23-1.2-.343-1.824-.331zm0 7.513a2.89 2.89 0 0 1-1.643-.38 2.85 2.85 0 0 1-1.143-1.228 2.813 2.813 0 0 1 .488-3.156 2.893 2.893 0 0 1 3.145-.71c.535.208.995.57 1.32 1.04.325.47.5 1.026.5 1.596a2.68 2.68 0 0 1-.728 1.976 2.732 2.732 0 0 1-1.938.862zm-10.355-7.513c-.936.002-1.85.279-2.628.796a4.696 4.696 0 0 0-1.738 2.107 4.643 4.643 0 0 0-.263 2.708 4.671 4.671 0 0 0 1.301 2.396 4.749 4.749 0 0 0 2.427 1.277 4.78 4.78 0 0 0 2.734-.273 4.723 4.723 0 0 0 2.12-1.731 4.652 4.652 0 0 0 .792-2.605 4.57 4.57 0 0 0-.343-1.805 4.606 4.606 0 0 0-1.028-1.529 4.66 4.66 0 0 0-1.55-1.01c-.579-.23-1.2-.343-1.824-.331zm0 7.513a2.89 2.89 0 0 1-1.643-.38 2.849 2.849 0 0 1-1.143-1.228 2.813 2.813 0 0 1 .487-3.156 2.894 2.894 0 0 1 3.145-.71c.536.208.996.57 1.32 1.04.325.47.5 1.026.5 1.596a2.682 2.682 0 0 1-.728 1.976 2.734 2.734 0 0 1-1.938.862zm-12.31-6.072v1.98h4.8a4.127 4.127 0 0 1-1.112 2.497 4.916 4.916 0 0 1-1.7 1.116c-.64.25-1.324.364-2.011.336a5.36 5.36 0 0 1-3.771-1.547 5.253 5.253 0 0 1-1.562-3.733c0-1.4.562-2.744 1.562-3.734a5.36 5.36 0 0 1 3.77-1.546 5.183 5.183 0 0 1 3.645 1.419l1.412-1.397a7.007 7.007 0 0 0-2.313-1.504 7.062 7.062 0 0 0-2.72-.498 7.41 7.41 0 0 0-2.898.47 7.353 7.353 0 0 0-2.48 1.555 7.268 7.268 0 0 0-1.666 2.393 7.208 7.208 0 0 0 0 5.695c.387.9.954 1.714 1.666 2.393a7.355 7.355 0 0 0 2.48 1.555c.924.348 1.91.508 2.897.47a6.805 6.805 0 0 0 2.781-.475 6.75 6.75 0 0 0 2.341-1.56 6.562 6.562 0 0 0 1.734-4.653 6.829 6.829 0 0 0-.1-1.232h-6.756zm50.344 1.54a4.406 4.406 0 0 0-1.554-2.114 4.476 4.476 0 0 0-2.49-.867 4.483 4.483 0 0 0-1.768.359 4.443 4.443 0 0 0-1.478 1.025 4.36 4.36 0 0 0-1.2 3.29 4.622 4.622 0 0 0 .91 2.795c.6.81 1.448 1.406 2.418 1.7.97.293 2.01.267 2.964-.073a4.696 4.696 0 0 0 2.331-1.814l-1.611-1.1c-.24.396-.581.723-.988.949a2.702 2.702 0 0 1-1.334.338 2.408 2.408 0 0 1-1.367-.359 2.372 2.372 0 0 1-.922-1.06l6.322-2.585-.233-.484zm-6.445 1.562a2.55 2.55 0 0 1 .658-1.885 2.598 2.598 0 0 1 1.82-.854 1.84 1.84 0 0 1 1.025.24c.31.178.56.442.719.76l-4.222 1.739zm-5.133 4.532h2.078v-13.75H92.31v13.75zm-3.4-8.03h-.078c-.31-.35-.694-.63-1.123-.82a3.296 3.296 0 0 0-1.366-.28 4.755 4.755 0 0 0-3.198 1.448 4.661 4.661 0 0 0-1.306 3.232c0 1.204.468 2.361 1.306 3.232a4.754 4.754 0 0 0 3.198 1.449c.471.009.939-.085 1.369-.275.43-.19.813-.472 1.12-.825h.078v.67c0 1.794-.967 2.75-2.522 2.75a2.64 2.64 0 0 1-1.45-.47 2.6 2.6 0 0 1-.94-1.19l-1.8.737a4.409 4.409 0 0 0 1.66 2.03c.748.495 1.63.754 2.53.742 2.433 0 4.444-1.42 4.444-4.873v-8.327h-1.922v.77zm-2.39 6.468a2.879 2.879 0 0 1-1.91-.89 2.823 2.823 0 0 1-.777-1.943c0-.722.278-1.417.777-1.943a2.879 2.879 0 0 1 1.91-.89 2.677 2.677 0 0 1 1.873.883 2.624 2.624 0 0 1 .661 1.945 2.594 2.594 0 0 1-.653 1.955 2.644 2.644 0 0 1-1.88.883zm27.101-12.188h-4.978v13.75h2.078v-5.214h2.9a4.365 4.365 0 0 0 1.747-.233 4.33 4.33 0 0 0 1.507-.903 4.242 4.242 0 0 0 0-6.265 4.33 4.33 0 0 0-3.254-1.135zm0 6.6h-2.9v-4.686h2.944a2.394 2.394 0 0 1 1.682.69 2.355 2.355 0 0 1 .696 1.664 2.356 2.356 0 0 1-1.468 2.175c-.288.118-.597.179-.91.179l-.044-.022zm12.822-1.97a3.91 3.91 0 0 0-2.168.502 3.86 3.86 0 0 0-1.532 1.6l1.833.759c.186-.331.464-.601.801-.78a1.993 1.993 0 0 1 1.099-.221 2.025 2.025 0 0 1 1.487.424 1.988 1.988 0 0 1 .736 1.347v.132a4.683 4.683 0 0 0-2.167-.528c-1.978 0-4 1.1-4 3.102a3.155 3.155 0 0 0 1.081 2.237 3.215 3.215 0 0 0 2.375.788 2.967 2.967 0 0 0 1.505-.317c.465-.236.858-.59 1.139-1.025h.067v1.1h2v-5.291c0-2.41-1.845-3.806-4.211-3.806l-.045-.022zm-.255 7.536c-.678 0-1.623-.341-1.623-1.166 0-1.1 1.178-1.474 2.223-1.474a3.714 3.714 0 0 1 1.888.462 2.47 2.47 0 0 1-.805 1.554 2.525 2.525 0 0 1-1.639.646l-.044-.022zm11.8-7.216-2.378 5.962h-.067l-2.467-5.962h-2.222l3.7 8.338-2.111 4.63h2.167l5.689-12.968h-2.311zm-18.667 8.8h2.067v-13.75h-2.067v13.75z"
        fill="#fff"></path>
    <path
        d="M12.101 11.413c-.366.428-.553.98-.522 1.54v24.332a2.12 2.12 0 0 0 .522 1.54l.078.088 13.767-13.63v-.33L12.179 11.337l-.078.077z"
        fill="url(#a)"></path>
    <path
        d="m30.5 29.826-4.555-4.543v-.33l4.556-4.543.1.066 5.455 3.058c1.556.87 1.556 2.3 0 3.18l-5.433 3.057-.122.055z"
        fill="url(#b)"></path>
    <path d="m30.635 29.76-4.689-4.643-13.844 13.706a1.81 1.81 0 0 0 2.3.077l16.233-9.14" fill="url(#c)"></path>
    <path d="m30.635 20.475-16.233-9.13a1.801 1.801 0 0 0-2.3.066l13.844 13.706 4.689-4.642z" fill="url(#d)"></path>
    <path opacity="0.2"
        d="m30.502 29.66-16.1 9.075a1.857 1.857 0 0 1-2.223 0l-.077.077.077.088a1.857 1.857 0 0 0 2.223 0l16.233-9.14-.133-.1z"
        fill="#000"></path>
    <path opacity="0.12"
        d="M12.1 38.67a2.185 2.185 0 0 1-.488-1.55v.164a2.12 2.12 0 0 0 .522 1.54l.078-.077-.111-.077zM36.056 26.547 30.5 29.66l.1.1 5.456-3.059c.322-.135.6-.353.808-.632.208-.278.335-.607.37-.952a2.065 2.065 0 0 1-1.178 1.43z"
        fill="#000"></path>
    <path opacity="0.25"
        d="m14.4 11.501 21.656 12.188c.296.13.556.328.76.576.205.248.348.541.418.854a1.914 1.914 0 0 0-.37-.952 1.942 1.942 0 0 0-.808-.632L14.4 11.347c-1.544-.88-2.822-.154-2.822 1.606v.165c.034-1.76 1.278-2.486 2.822-1.617z"
        fill="#fff"></path>
    <defs>
        <linearGradient id="a" x1="24.723" y1="12.7" x2="6.266" y2="31.343" gradientUnits="userSpaceOnUse">
            <stop stop-color="#00A0FF"></stop>
            <stop offset="0.01" stop-color="#00A1FF"></stop>
            <stop offset="0.26" stop-color="#00BEFF"></stop>
            <stop offset="0.51" stop-color="#00D2FF"></stop>
            <stop offset="0.76" stop-color="#00DFFF"></stop>
            <stop offset="1" stop-color="#00E3FF"></stop>
        </linearGradient>
        <linearGradient id="b" x1="38.09" y1="25.118" x2="11.212" y2="25.118" gradientUnits="userSpaceOnUse">
            <stop stop-color="#FFE000"></stop>
            <stop offset="0.41" stop-color="#FFBD00"></stop>
            <stop offset="0.78" stop-color="orange"></stop>
            <stop offset="1" stop-color="#FF9C00"></stop>
        </linearGradient>
        <linearGradient id="c" x1="28.09" y1="27.647" x2="3.056" y2="52.924" gradientUnits="userSpaceOnUse">
            <stop stop-color="#FF3A44"></stop>
            <stop offset="1" stop-color="#C31162"></stop>
        </linearGradient>
        <linearGradient id="d" x1="8.613" y1="3.315" x2="19.788" y2="14.604" gradientUnits="userSpaceOnUse">
            <stop stop-color="#32A071"></stop>
            <stop offset="0.07" stop-color="#2DA771"></stop>
            <stop offset="0.48" stop-color="#15CF74"></stop>
            <stop offset="0.8" stop-color="#06E775"></stop>
            <stop offset="1" stop-color="#00F076"></stop>
        </linearGradient>
    </defs>
</svg>