<svg width="151" height="51" fill="none" xmlns="http://www.w3.org/2000/svg">
    <path
        d="M138.555.664H12.452c-.46 0-.914 0-1.372.003-.384.002-.765.01-1.152.016a16.61 16.61 0 0 0-2.512.22c-.83.14-1.633.405-2.383.784a8.07 8.07 0 0 0-3.506 3.5 8.235 8.235 0 0 0-.783 2.379C.604 8.393.529 9.23.519 10.07c-.012.383-.013.767-.019 1.15v28.893c.006.389.007.764.019 1.153.01.838.085 1.675.225 2.502a8.22 8.22 0 0 0 .783 2.38 7.76 7.76 0 0 0 1.477 2.018 7.865 7.865 0 0 0 2.029 1.474c.75.38 1.553.646 2.383.788.83.136 1.67.21 2.512.221.387.009.768.014 1.152.014.458.002.912.002 1.372.002h126.103c.45 0 .908 0 1.359-.002.382 0 .773-.005 1.155-.014.84-.01 1.678-.084 2.507-.22a8.54 8.54 0 0 0 2.392-.79 7.85 7.85 0 0 0 2.027-1.473 8.007 8.007 0 0 0 1.482-2.017 8.26 8.26 0 0 0 .776-2.38c.139-.828.217-1.665.232-2.503.005-.389.005-.764.005-1.153.01-.454.01-.905.01-1.367v-26.16c0-.458 0-.913-.01-1.365 0-.384 0-.768-.005-1.152a16.93 16.93 0 0 0-.232-2.502 8.284 8.284 0 0 0-.776-2.38 8.095 8.095 0 0 0-3.509-3.499 8.492 8.492 0 0 0-2.392-.784 16.388 16.388 0 0 0-2.507-.22c-.382-.007-.773-.014-1.155-.016-.451-.003-.909-.003-1.359-.003z"
        fill="#A6A6A6"></path>
    <path
        d="M11.004 49.662c-.383 0-.756-.005-1.136-.014-.786-.01-1.57-.079-2.346-.205a7.385 7.385 0 0 1-2.079-.687A6.784 6.784 0 0 1 3.69 47.48a6.677 6.677 0 0 1-1.281-1.752 7.18 7.18 0 0 1-.682-2.08 15.575 15.575 0 0 1-.209-2.352C1.51 41.03 1.5 40.15 1.5 40.15V11.162s.011-.867.018-1.122c.01-.787.08-1.573.208-2.35.12-.725.35-1.429.682-2.085a6.743 6.743 0 0 1 1.274-1.754 6.985 6.985 0 0 1 1.76-1.283 7.31 7.31 0 0 1 2.076-.683 15.8 15.8 0 0 1 2.354-.206l1.132-.015H139.99l1.146.016c.781.01 1.561.077 2.332.204.73.124 1.436.356 2.097.687a7.022 7.022 0 0 1 3.032 3.037 7.22 7.22 0 0 1 .671 2.07c.131.782.203 1.574.218 2.367.004.356.004.738.004 1.117.01.47.01.919.01 1.37v26.262c0 .456 0 .901-.01 1.35 0 .408 0 .782-.005 1.166-.014.78-.086 1.557-.214 2.326a7.2 7.2 0 0 1-.678 2.096 6.875 6.875 0 0 1-1.275 1.739 6.79 6.79 0 0 1-1.756 1.283 7.358 7.358 0 0 1-2.094.69c-.775.126-1.56.195-2.346.204-.367.009-.752.014-1.126.014l-1.361.002-127.631-.002z"
        fill="#000"></path>
    <path
        d="M31.549 26.21c.013-1.05.29-2.08.807-2.993a6.218 6.218 0 0 1 2.146-2.231A6.332 6.332 0 0 0 29.5 18.27c-2.104-.222-4.145 1.264-5.218 1.264-1.093 0-2.745-1.242-4.523-1.206a6.644 6.644 0 0 0-3.254.975 6.677 6.677 0 0 0-2.353 2.458c-2.424 4.214-.616 10.406 1.707 13.812 1.161 1.668 2.52 3.531 4.296 3.465 1.739-.072 2.388-1.113 4.487-1.113 2.08 0 2.688 1.113 4.501 1.071 1.866-.03 3.041-1.675 4.162-3.359a13.818 13.818 0 0 0 1.904-3.891 6 6 0 0 1-2.66-2.215 6.034 6.034 0 0 1-1-3.321zM28.124 16.031a6.147 6.147 0 0 0 1.397-4.392 6.206 6.206 0 0 0-4.02 2.088 5.84 5.84 0 0 0-1.434 4.23 5.121 5.121 0 0 0 4.057-1.926zM53.528 34.817h-5.934l-1.425 4.224h-2.513l5.62-15.627h2.611l5.62 15.627h-2.556l-1.423-4.224zm-5.32-1.949h4.704l-2.319-6.855h-.064l-2.32 6.855zM69.644 33.346c0 3.54-1.888 5.815-4.737 5.815a3.835 3.835 0 0 1-2.07-.482 3.856 3.856 0 0 1-1.5-1.511h-.054v5.643h-2.33V27.649h2.255v1.895h.043a4.014 4.014 0 0 1 3.614-2.014c2.88 0 4.779 2.285 4.779 5.816zm-2.395 0c0-2.307-1.187-3.823-2.999-3.823-1.78 0-2.977 1.548-2.977 3.823 0 2.295 1.197 3.833 2.977 3.833 1.812 0 3-1.506 3-3.833zM82.136 33.346c0 3.54-1.888 5.815-4.736 5.815a3.834 3.834 0 0 1-2.071-.482 3.855 3.855 0 0 1-1.5-1.511h-.054v5.643h-2.33V27.649H73.7v1.895h.043a4.014 4.014 0 0 1 3.614-2.014c2.88 0 4.779 2.285 4.779 5.816zm-2.395 0c0-2.307-1.187-3.823-2.999-3.823-1.78 0-2.977 1.548-2.977 3.823 0 2.295 1.197 3.833 2.977 3.833 1.812 0 3-1.506 3-3.833zM90.392 34.688c.173 1.55 1.673 2.567 3.722 2.567 1.963 0 3.376-1.018 3.376-2.415 0-1.213-.852-1.94-2.87-2.437l-2.017-.488c-2.858-.693-4.185-2.035-4.185-4.213 0-2.696 2.34-4.548 5.664-4.548 3.29 0 5.544 1.852 5.62 4.548H97.35c-.14-1.559-1.424-2.5-3.301-2.5-1.877 0-3.16.952-3.16 2.338 0 1.105.82 1.755 2.826 2.253l1.715.422c3.194.759 4.52 2.047 4.52 4.332 0 2.924-2.32 4.755-6.009 4.755-3.452 0-5.783-1.788-5.933-4.615h2.385zM104.975 24.953v2.696h2.158v1.852h-2.158v6.281c0 .976.432 1.43 1.381 1.43.256-.004.512-.022.766-.054V39a6.37 6.37 0 0 1-1.294.108c-2.297 0-3.194-.866-3.194-3.075v-6.53h-1.65v-1.853h1.65v-2.696h2.341zM108.383 33.345c0-3.585 2.103-5.837 5.382-5.837 3.291 0 5.384 2.252 5.384 5.837 0 3.595-2.082 5.837-5.384 5.837-3.3 0-5.382-2.242-5.382-5.837zm8.392 0c0-2.459-1.122-3.91-3.01-3.91-1.887 0-3.009 1.462-3.009 3.91 0 2.469 1.122 3.91 3.009 3.91 1.888 0 3.01-1.441 3.01-3.91zM121.07 27.648h2.222v1.94h.054c.15-.606.504-1.141 1.001-1.516a2.7 2.7 0 0 1 1.729-.543c.268 0 .536.029.798.088v2.187a3.245 3.245 0 0 0-1.047-.141 2.34 2.34 0 0 0-1.814.75 2.357 2.357 0 0 0-.613 1.87v6.759h-2.33V27.648zM137.616 35.695c-.313 2.068-2.319 3.487-4.886 3.487-3.302 0-5.351-2.22-5.351-5.783 0-3.573 2.06-5.891 5.253-5.891 3.14 0 5.114 2.165 5.114 5.62v.8h-8.016v.142a2.98 2.98 0 0 0 .801 2.305 2.954 2.954 0 0 0 2.252.922 2.562 2.562 0 0 0 2.621-1.602h2.212zm-7.875-3.4h5.674a2.752 2.752 0 0 0-.762-2.057 2.734 2.734 0 0 0-2.021-.835 2.863 2.863 0 0 0-2.046.841 2.895 2.895 0 0 0-.845 2.05zM47.916 11.651a3.297 3.297 0 0 1 2.64 1.03 3.324 3.324 0 0 1 .88 2.701c0 2.399-1.292 3.778-3.52 3.778h-2.701V11.65h2.701zm-1.54 6.447h1.41a2.343 2.343 0 0 0 1.874-.761 2.364 2.364 0 0 0 .593-1.94 2.375 2.375 0 0 0-.602-1.926 2.358 2.358 0 0 0-1.864-.759h-1.41v5.386zM52.747 16.325a2.694 2.694 0 0 1 .683-2.061 2.676 2.676 0 0 1 1.979-.88 2.665 2.665 0 0 1 1.979.88 2.685 2.685 0 0 1 .683 2.06 2.695 2.695 0 0 1-.681 2.065 2.675 2.675 0 0 1-1.981.88 2.665 2.665 0 0 1-1.98-.88 2.687 2.687 0 0 1-.682-2.064zm4.178 0c0-1.228-.55-1.947-1.514-1.947-.969 0-1.513.719-1.513 1.947 0 1.238.544 1.95 1.513 1.95.964 0 1.514-.717 1.514-1.95zM65.147 19.16h-1.155l-1.167-4.173h-.088l-1.162 4.174h-1.144l-1.556-5.667h1.13l1.011 4.324h.083l1.16-4.324h1.07l1.16 4.324h.088l1.006-4.324h1.114l-1.55 5.667zM68.008 13.494h1.072v.9h.083a1.695 1.695 0 0 1 1.685-1.01 1.83 1.83 0 0 1 1.481.583 1.844 1.844 0 0 1 .473 1.525v3.668h-1.114v-3.387c0-.91-.395-1.364-1.219-1.364a1.29 1.29 0 0 0-1.287.884c-.06.178-.08.366-.06.552v3.315h-1.114v-5.666zM74.574 11.281h1.114v7.879h-1.114V11.28zM77.24 16.325a2.695 2.695 0 0 1 .682-2.061 2.674 2.674 0 0 1 1.98-.88 2.666 2.666 0 0 1 1.978.88 2.687 2.687 0 0 1 .684 2.06 2.696 2.696 0 0 1-.682 2.065 2.676 2.676 0 0 1-1.98.881 2.666 2.666 0 0 1-1.981-.88 2.687 2.687 0 0 1-.682-2.065zm4.177 0c0-1.228-.55-1.947-1.514-1.947-.969 0-1.513.719-1.513 1.947 0 1.238.545 1.95 1.513 1.95.964 0 1.514-.717 1.514-1.95zM83.734 17.558c0-1.02.757-1.608 2.1-1.691l1.529-.089v-.49c0-.598-.394-.936-1.156-.936-.622 0-1.053.23-1.176.63h-1.079c.114-.973 1.026-1.597 2.306-1.597 1.416 0 2.214.707 2.214 1.904v3.872h-1.073v-.797h-.088a1.902 1.902 0 0 1-1.695.89 1.698 1.698 0 0 1-1.316-.429 1.713 1.713 0 0 1-.566-1.267zm3.629-.484V16.6l-1.379.089c-.777.052-1.13.317-1.13.817 0 .51.441.807 1.047.807a1.324 1.324 0 0 0 1.321-.726c.08-.16.129-.334.14-.513zM89.938 16.324c0-1.79.916-2.925 2.343-2.925a1.855 1.855 0 0 1 1.73.994h.084v-3.112h1.114v7.879H94.14v-.896h-.088a1.963 1.963 0 0 1-1.772.99c-1.436 0-2.344-1.135-2.344-2.93zm1.15 0c0 1.202.565 1.925 1.508 1.925.94 0 1.52-.733 1.52-1.92 0-1.181-.587-1.925-1.52-1.925-.937 0-1.508.728-1.508 1.92zM99.817 16.325a2.693 2.693 0 0 1 1.58-2.71 2.668 2.668 0 0 1 3.619 1.607c.118.355.161.73.125 1.103a2.703 2.703 0 0 1-.681 2.064 2.68 2.68 0 0 1-1.981.88 2.665 2.665 0 0 1-1.981-.88 2.7 2.7 0 0 1-.68-2.064zm4.178 0c0-1.228-.549-1.947-1.514-1.947-.968 0-1.513.719-1.513 1.947 0 1.238.545 1.95 1.513 1.95.965 0 1.514-.717 1.514-1.95zM106.637 13.494h1.072v.9h.083a1.684 1.684 0 0 1 1.685-1.01 1.833 1.833 0 0 1 1.89 1.291c.082.264.104.543.063.817v3.668h-1.114v-3.387c0-.91-.394-1.364-1.218-1.364a1.288 1.288 0 0 0-1.002.407 1.308 1.308 0 0 0-.345 1.03v3.314h-1.114v-5.666zM117.722 12.082v1.437h1.223v.942h-1.223v2.913c0 .594.244.854.798.854.142 0 .284-.01.425-.026v.931c-.2.036-.403.056-.606.058-1.239 0-1.732-.438-1.732-1.53v-3.2h-.896v-.942h.896v-1.437h1.115zM120.469 11.281h1.104v3.123h.088a1.741 1.741 0 0 1 1.721-1.015 1.856 1.856 0 0 1 1.874 1.301c.083.262.106.539.07.811v3.659h-1.115v-3.383c0-.905-.42-1.363-1.207-1.363a1.314 1.314 0 0 0-1.348.87c-.065.18-.09.374-.073.566v3.31h-1.114V11.28zM131.819 17.63a2.298 2.298 0 0 1-.926 1.266c-.447.3-.985.432-1.519.374a2.552 2.552 0 0 1-1.978-.856 2.57 2.57 0 0 1-.63-2.069 2.623 2.623 0 0 1 1.52-2.733c.341-.153.71-.23 1.083-.227 1.57 0 2.518 1.077 2.518 2.856v.39h-3.986v.063a1.495 1.495 0 0 0 1.503 1.623 1.348 1.348 0 0 0 1.343-.686h1.072zm-3.918-1.825h2.851a1.371 1.371 0 0 0-.835-1.364 1.36 1.36 0 0 0-.554-.104 1.444 1.444 0 0 0-1.462 1.468z"
        fill="#fff"></path>
</svg>