<svg width="989" height="387" viewBox="0 0 989 387" fill="none" xmlns="http://www.w3.org/2000/svg">
<path d="M501.257 65.3329C505.228 61.3621 508.206 50.7734 508.206 45.4791C516.148 55.7369 518.464 72.6126 519.126 85.1867C522.435 82.8704 524.751 73.2744 524.42 68.9728C534.016 83.5322 540.303 103.717 538.318 119.269C535.009 150.373 497.617 169.565 489.676 188.757C461.219 159.639 443.681 137.799 441.034 119.269C436.732 84.8558 486.036 58.7149 489.676 20C498.61 31.2505 501.257 50.7734 501.257 65.3329Z" fill="#FF0000"></path>
<path d="M570.415 208.281H408.606L431.438 244.68H465.52V382.664H513.831V244.68H547.914L570.415 208.281Z" fill="#23282C"></path>
<path d="M589.937 208.281V244.68H635.601V382.664H683.912V244.68H729.245V208.281H589.937Z" fill="#23282C"></path>
<path d="M309.005 244.68H389.082V208.281H260.694V382.664H389.082V346.596H309.005V313.838H379.156V277.439H309.005V244.68Z" fill="#23282C"></path>
<path d="M219.664 372.737C200.141 381.34 179.294 385.972 158.117 385.972C143.558 386.303 128.998 383.656 115.431 378.031C98.8865 371.082 84.658 359.501 74.731 344.61C64.8041 329.72 59.5098 312.182 59.5098 294.314C59.5098 276.446 64.8041 258.908 74.731 244.018C84.658 229.127 98.8865 217.546 115.431 210.597C128.998 205.303 143.558 202.656 158.117 202.656C179.294 202.986 200.141 207.288 219.664 215.891C212.053 228.135 204.112 240.378 196.501 252.621C189.883 248.981 182.934 246.334 175.324 244.679C171.684 244.018 168.044 243.356 164.073 243.025C162.088 243.025 160.433 242.694 158.448 243.025C156.463 243.025 154.808 243.025 152.823 243.356C137.932 244.349 124.366 252.29 116.093 264.864C110.468 273.467 107.49 283.725 107.49 293.983C107.49 304.241 110.468 314.499 116.093 323.102C121.718 332.036 130.322 338.654 140.58 341.963C150.506 345.272 161.426 345.272 171.353 341.963C171.353 324.426 171.353 306.888 171.353 289.681C187.236 289.681 203.45 289.681 219.333 289.681C219.664 317.808 219.664 345.272 219.664 372.737Z" fill="#23282C"></path>
<path d="M886.753 320.455C896.68 315.492 904.952 307.881 910.577 298.616C916.534 289.351 919.512 278.432 919.512 267.512C919.512 251.96 913.555 237.4 902.636 226.15C891.716 214.899 877.157 208.612 861.936 208.281C827.853 208.281 794.102 208.281 760.019 208.281C760.019 267.512 760.019 326.742 760.019 385.973C776.233 385.973 792.116 385.973 808.33 385.973C808.33 366.119 808.33 346.265 808.33 326.742C816.934 326.742 825.537 326.742 834.14 326.742C846.383 346.596 858.957 366.45 871.201 385.973C890.062 385.973 908.923 385.973 927.784 385.973C914.217 364.134 900.651 342.295 886.753 320.455ZM871.862 267.512C871.862 267.512 871.862 267.843 871.862 267.512C871.862 273.799 869.546 279.424 865.245 283.726C865.245 283.726 865.245 283.726 864.914 283.726C860.612 288.028 854.656 290.344 848.369 290.013C834.802 290.013 821.566 290.013 807.999 290.013C807.999 274.792 807.999 259.57 807.999 244.349C821.566 244.349 834.802 244.349 848.369 244.349C854.656 244.349 860.612 246.665 864.914 250.967C869.546 255.269 871.862 261.225 871.862 267.512Z" fill="#23282C"></path>
</svg>