<?xml version="1.0" encoding="utf-8"?>
<!-- Generator: Adobe Illustrator 26.0.0, SVG Export Plug-In . SVG Version: 6.00 Build 0)  -->
<svg version="1.1" id="_x31_" xmlns="http://www.w3.org/2000/svg" xmlns:xlink="http://www.w3.org/1999/xlink" x="0px" y="0px"
	 viewBox="0 0 1024 1024" style="enable-background:new 0 0 1024 1024;" xml:space="preserve">
<style type="text/css">
	.st0{fill:#FF0000;}
	.st1{fill:#FFFFFF;}
</style>
<g>
	<circle class="st0" cx="512" cy="512" r="512"/>
	<g>
		<g>
			<path class="st1" d="M512,619.4H256.5v23.5c0,0,119,6.8,138.7,97.8H512l0,0h116.8c19.7-91,138.7-97.8,138.7-97.8v-23.5H512
				L512,619.4z"/>
			<path class="st1" d="M622.7,761.1c-7.6-1.5-14.4,3-16.7,10.6l-15.2,87.9h-23.5l11.4-83.4c0.8-7.6-4.5-14.4-12.1-15.2
				s-14.4,4.5-15.2,12.1l-6.1,86.4h-23.5l2.3-84.9c0-7.6-6.1-13.6-13.6-13.6c-7.6,0-13.6,6.1-13.6,13.6l2.3,84.9h-23.5l-6.1-86.4
				c-0.8-7.6-7.6-12.9-15.2-12.1c-7.6,0.8-12.9,7.6-12.1,15.2l11.4,83.4h-23.5L415,771.8c-1.5-7.6-9.1-12.1-16.7-10.6
				s-12.1,9.1-10.6,15.9l19,82.6H418c3.8,19,6.1,31.1,6.8,38.7h19.7c1.1,13,6.4,64.9,13,125.6h106.9c6.4-60.9,11.9-112.6,13.5-125.6
				h19.7c1.5-7.6,3.8-20.5,6.8-38.7h11.4l19-82.6C635.6,770.2,630.3,762.7,622.7,761.1z"/>
		</g>
		<path class="st1" d="M544.9,231.7c11.3-11.3,19.8-41.4,19.8-56.5c22.6,29.2,29.2,77.2,31.1,112.9c9.4-6.6,16-33.9,15.1-46.1
			c27.3,41.4,48.9,98.8,43.3,143c-13.2,88.5-119.5,143-142.1,197.6c-80.9-82.8-130.8-144.9-138.3-197.6
			c-12.2-97.9,128-172.2,138.3-282.3C537.4,134.8,544.9,190.3,544.9,231.7z"/>
	</g>
</g>
</svg>
